<svg width="112" height="112" viewBox="0 0 112 112" fill="none" xmlns="http://www.w3.org/2000/svg">
<path d="M78.3987 44.7994C78.3987 50.7402 76.0387 56.4376 71.8379 60.6384C67.6372 64.8392 61.9397 67.1991 55.9989 67.1991C50.0581 67.1991 44.3607 64.8392 40.1599 60.6384C35.9591 56.4376 33.5992 50.7402 33.5992 44.7994C33.5992 38.8586 35.9591 33.1611 40.1599 28.9604C44.3607 24.7596 50.0581 22.3996 55.9989 22.3996C61.9397 22.3996 67.6372 24.7596 71.8379 28.9604C76.0387 33.1611 78.3987 38.8586 78.3987 44.7994Z" fill="#546066"/>
<path fill-rule="evenodd" clip-rule="evenodd" d="M53.7146 111.954C23.8473 110.756 0 86.1606 0 55.9994C0 25.0709 25.0709 0 55.9994 0C86.9278 0 111.999 25.0709 111.999 55.9994C111.999 86.9278 86.9278 111.999 55.9994 111.999C55.7437 112 55.4879 112 55.2322 111.999C54.7254 111.999 54.2186 111.982 53.7146 111.954ZM20.0646 91.335C19.6459 90.1326 19.5034 88.8514 19.6476 87.5864C19.7919 86.3214 20.2192 85.1051 20.8978 84.0278C21.5764 82.9506 22.489 82.04 23.5677 81.3636C24.6464 80.6873 25.8636 80.2626 27.1289 80.1211C48.9575 77.7047 63.1757 77.9231 84.8979 80.1715C86.1649 80.3035 87.3851 80.7228 88.4655 81.3976C89.546 82.0724 90.4582 82.9848 91.1327 84.0654C91.8072 85.1461 92.2262 86.3664 92.3578 87.6334C92.4894 88.9004 92.3302 90.1808 91.8922 91.377C101.202 81.9576 106.416 69.2431 106.399 55.9994C106.399 28.1649 83.8339 5.59994 55.9994 5.59994C28.1649 5.59994 5.59994 28.1649 5.59994 55.9994C5.59994 69.764 11.1187 82.2407 20.0646 91.335Z" fill="#546066"/>
</svg>
